<svg xmlns="http://www.w3.org/2000/svg" fill="none" viewBox="0 0 64 64">
  <rect width="104" height="104" x="100" y="100" fill="#09090b" rx="28"/>
  <rect width="103" height="103" x="100.5" y="100.5" stroke="#27272a" stroke-opacity=".8" rx="27.5"/>
  <g fill="#f8fafc" filter="url(#a)">
    <path d="M120 125.16v2.16a3 3 0 0 0 3 3h12.78a3 3 0 0 0 3-3V123a3 3 0 0 0-3-3H123a3 3 0 0 0-3 3zM164.46 125.16v2.16a3 3 0 0 0 3 3H181a3 3 0 0 0 3-3V123a3 3 0 0 0-3-3h-13.54a3 3 0 0 0-3 3zM120 138.79v2.16a3 3 0 0 0 3 3h19.68a3 3 0 0 0 3-3v-4.32a3 3 0 0 0-3-3H123a3 3 0 0 0-3 3zM158.32 138.79v2.16a3 3 0 0 0 3 3H181a3 3 0 0 0 3-3v-4.32a3 3 0 0 0-3-3h-19.68a3 3 0 0 0-3 3zM120 151.59v2.16a3 3 0 0 0 3 3h6.65a3 3 0 0 0 3-3v-4.32a3 3 0 0 0-3-3H123a3 3 0 0 0-3 3zM139.54 151.59v2.16a3 3 0 0 0 3 3h18.92a3 3 0 0 0 3-3v-4.32a3 3 0 0 0-3-3h-18.92a3 3 0 0 0-3 3zM170.97 151.59v2.16a3 3 0 0 0 3 3H181a3 3 0 0 0 3-3v-4.32a3 3 0 0 0-3-3h-7.03a3 3 0 0 0-3 3zM120 165.63v2.16a3 3 0 0 0 3 3h6.65a3 3 0 0 0 3-3v-4.33a3 3 0 0 0-3-3H123a3 3 0 0 0-3 3zM145.68 165.63v2.16a3 3 0 0 0 3 3h6.64a3 3 0 0 0 3-3v-4.33a3 3 0 0 0-3-3h-6.64a3 3 0 0 0-3 3zM170.97 165.63v2.16a3 3 0 0 0 3 3H181a3 3 0 0 0 3-3v-4.33a3 3 0 0 0-3-3h-7.03a3 3 0 0 0-3 3zM120 178.84V181a3 3 0 0 0 3 3h6.65a3 3 0 0 0 3-3v-4.32a3 3 0 0 0-3-3H123a3 3 0 0 0-3 3zM170.97 178.84V181a3 3 0 0 0 3 3H181a3 3 0 0 0 3-3v-4.32a3 3 0 0 0-3-3h-7.03a3 3 0 0 0-3 3z"/>
  </g>
  <defs>
    <filter id="a" width="100%" height="100%" x="0" y="0" color-interpolation-filters="sRGB" filterUnits="userSpaceOnUse">
      <feFlood flood-opacity="0" result="BackgroundImageFix"/>
      <feColorMatrix in="SourceAlpha" result="hardAlpha" values="0 0 0 0 0 0 0 0 0 0 0 0 0 0 0 0 0 0 127 0"/>
      <feOffset/>
      <feGaussianBlur stdDeviation="10"/>
      <feComposite in2="hardAlpha" operator="out"/>
      <feColorMatrix values="0 0 0 0 0.658824 0 0 0 0 0.333333 0 0 0 0 0.968627 0 0 0 0.7 0"/>
      <feBlend in2="BackgroundImageFix" result="effect1_dropShadow_7_315"/>
      <feColorMatrix in="SourceAlpha" result="hardAlpha" values="0 0 0 0 0 0 0 0 0 0 0 0 0 0 0 0 0 0 127 0"/>
      <feOffset/>
      <feGaussianBlur stdDeviation="32"/>
      <feComposite in2="hardAlpha" operator="out"/>
      <feColorMatrix values="0 0 0 0 0.486275 0 0 0 0 0.227451 0 0 0 0 0.929412 0 0 0 0.35 0"/>
      <feBlend in2="effect1_dropShadow_7_315" result="effect2_dropShadow_7_315"/>
      <feColorMatrix in="SourceAlpha" result="hardAlpha" values="0 0 0 0 0 0 0 0 0 0 0 0 0 0 0 0 0 0 127 0"/>
      <feOffset/>
      <feGaussianBlur stdDeviation="60"/>
      <feComposite in2="hardAlpha" operator="out"/>
      <feColorMatrix values="0 0 0 0 0.298039 0 0 0 0 0.113725 0 0 0 0 0.584314 0 0 0 0.25 0"/>
      <feBlend in2="effect2_dropShadow_7_315" result="effect3_dropShadow_7_315"/>
      <feBlend in="SourceGraphic" in2="effect3_dropShadow_7_315" result="shape"/>
    </filter>
  </defs>
</svg>