<svg xmlns="http://www.w3.org/2000/svg" width="104" height="104" fill="none"><rect width="104" height="104" fill="#09090b" rx="28"/><rect width="103" height="103" x=".5" y=".5" stroke="#27272a" stroke-opacity=".8" rx="27.5"/><path fill="#fff" d="M37.797 20H26a2 2 0 0 0-2 2v8.488a2 2 0 0 0 2 2h11.797a2 2 0 0 0 2-2V22a2 2 0 0 0-2-2M78.008 20H66.21a2 2 0 0 0-2 2v8.488a2 2 0 0 0 2 2h11.797a2 2 0 0 0 2-2V22a2 2 0 0 0-2-2M37.797 35.61H26a2 2 0 0 0-2 2v10.048a2 2 0 0 0 2 2h11.797a2 2 0 0 0 2-2V37.61a2 2 0 0 0-2-2M57.903 35.61H46.106a2 2 0 0 0-2 2v10.048a2 2 0 0 0 2 2h11.797a2 2 0 0 0 2-2V37.61a2 2 0 0 0-2-2M78.008 35.61H66.21a2 2 0 0 0-2 2v10.048a2 2 0 0 0 2 2h11.797a2 2 0 0 0 2-2V37.61a2 2 0 0 0-2-2M37.797 52.78H26a2 2 0 0 0-2 2v10.05a2 2 0 0 0 2 2h11.797a2 2 0 0 0 2-2V54.78a2 2 0 0 0-2-2M78.008 52.78H66.21a2 2 0 0 0-2 2v10.05a2 2 0 0 0 2 2h11.797a2 2 0 0 0 2-2V54.78a2 2 0 0 0-2-2M37.797 69.951H26a2 2 0 0 0-2 2V82a2 2 0 0 0 2 2h11.797a2 2 0 0 0 2-2V71.95a2 2 0 0 0-2-2M78.008 69.951H66.21a2 2 0 0 0-2 2V82a2 2 0 0 0 2 2h11.797a2 2 0 0 0 2-2V71.95a2 2 0 0 0-2-2"/></svg>